# xmcd
#
# Track frame offsets: 
#        150
#        14643
#        25723
#        37776
#        50772
#        67107
#        86297
#        99306
#        114186
#        133933
#        149071
#        165331
#        172855
#        193545
#        212693
#        223469
#        241816
#        256309
#        269798
#        285872
#
# Disc length: 4026 seconds
#
# Revision: 0
# Processed by: cddbd v1.4PL0 Copyright (c) Steve Scherf et al.
# Submitted via: ExactAudioCopy v0.90a11
#
DISCID=200fb814
DTITLE=Michal Tucný - To byl Michal Tucný CD1
DYEAR=1900
DGENRE=
TTITLE0=Spím v obilí
TTITLE1=Cesty toulavý
TTITLE2=Rád se brouzdám rosou
TTITLE3=Snídane v tráve
TTITLE4=Koukám, jak celá zeme vstává
TTITLE5=Mesícku
TTITLE6=Slámu v botách nosím
TTITLE7=Já si jen tak lítám
TTITLE8=Karolína
TTITLE9=Dvojníci
TTITLE10=Jeste dlouhou cestu mám
TTITLE11=Slapej dál
TTITLE12=Kosmickej vandr
TTITLE13=Dlouhá pout
TTITLE14=Rovnou, tady rovnou
TTITLE15=Pristup k ohni
TTITLE16=Chvíli spát
TTITLE17=Vltavský drak
TTITLE18=Vánek s vùní burcáku
TTITLE19=Abych tu zil
EXTD=Reader`s Digest
EXTT0=
EXTT1=
EXTT2=
EXTT3=
EXTT4=
EXTT5=
EXTT6=
EXTT7=
EXTT8=
EXTT9=
EXTT10=
EXTT11=
EXTT12=
EXTT13=
EXTT14=
EXTT15=
EXTT16=
EXTT17=
EXTT18=
EXTT19=
PLAYORDER=
